# xmcd
#
# Track frame offsets:
#	150
#	18785
#	42081
#	66023
#	93000
#	110044
#	148768
#	166981
#	182055
#	201855
#	224826
#	245501
#	262494
#	289278
#
# Disc length: 4213 seconds
#
# Revision: 0
# Processed by: cddbd v1.5.2PL0 Copyright (c) Steve Scherf et al.
# Submitted via: dBpowerAMP V4.0
#
DISCID=da10730e
DTITLE=Zora Young - The French Connexion
DYEAR=2009
DGENRE=Blues
TTITLE0=Better be ready
TTITLE1=Goin' back to Menphis
TTITLE2=Wang Dang Doodle
TTITLE3=In the Ghetto
TTITLE4=I'm in love with You
TTITLE5=Toxic
TTITLE6=Just a closer walk with Thee
TTITLE7=TonightI'll be Staying with You
TTITLE8=See See Rider
TTITLE9=Mystery Train
TTITLE10=I'm Movin' on
TTITLE11=Goin' back to Menphis
TTITLE12=Rock Me Baby
TTITLE13=Honey Bee
EXTD=
EXTT0=
EXTT1=
EXTT2=
EXTT3=
EXTT4=
EXTT5=
EXTT6=
EXTT7=
EXTT8=
EXTT9=
EXTT10=
EXTT11=
EXTT12=
EXTT13=
PLAYORDER=
